<?xml version="1.0" encoding="UTF-8" standalone="no"?> <svg id="Layer_1" data-name="Layer 1" xmlns="http://www.w3.org/2000/svg" viewBox="0 0 24 24"><title>trash</title><path d="M20.28,6.06H15.47v-1A3.09,3.09,0,0,0,12.38,2h-.76A3.09,3.09,0,0,0,8.53,5.09v1H3.72a1,1,0,0,0,0,2h.41V18.91A3.09,3.09,0,0,0,7.21,22h9.57a3.09,3.09,0,0,0,3.09-3.09V8.06h.41a1,1,0,0,0,0-2Zm-9.75-1A1.09,1.09,0,0,1,11.62,4h.76a1.09,1.09,0,0,1,1.09,1.09v1H10.53Zm7.34,13.82A1.09,1.09,0,0,1,16.79,20H7.21a1.09,1.09,0,0,1-1.09-1.09V8.06H17.88Z"/><path d="M10,18.28a1,1,0,0,0,1-1v-6.5a1,1,0,0,0-2,0v6.5A1,1,0,0,0,10,18.28Z"/><path d="M14,18.28a1,1,0,0,0,1-1v-6.5a1,1,0,0,0-2,0v6.5A1,1,0,0,0,14,18.28Z"/></svg>