<?xml version="1.0" encoding="UTF-8" standalone="no"?> <svg id="Layer_1" data-name="Layer 1" xmlns="http://www.w3.org/2000/svg" viewBox="0 0 24 24"><title>setting</title><path d="M12,16.56A4.56,4.56,0,1,1,16.56,12,4.57,4.57,0,0,1,12,16.56Zm0-7.12A2.56,2.56,0,1,0,14.56,12,2.57,2.57,0,0,0,12,9.44Z"/><path d="M12.84,22H11.16a2,2,0,0,1-1.91-1.49l-.07-.29-1-.42L7.93,20a2,2,0,0,1-2.41-.29L4.34,18.48A2,2,0,0,1,4,16.07l.15-.25-.42-1-.29-.07A2,2,0,0,1,2,12.84V11.16A2,2,0,0,1,3.5,9.25l.29-.07.42-1L4,7.93a2,2,0,0,1,.29-2.41L5.52,4.34A2,2,0,0,1,7.93,4l.25.15,1-.42.07-.29A2,2,0,0,1,11.16,2h1.68a2,2,0,0,1,1.91,1.49l.07.29,1,.42L16.07,4a2,2,0,0,1,2.41.29l1.18,1.19A2,2,0,0,1,20,7.93l-.15.25.42,1,.29.07A2,2,0,0,1,22,11.16v1.68a2,2,0,0,1-1.5,1.91l-.29.07-.42,1,.15.25a2,2,0,0,1-.29,2.41l-1.18,1.18a2,2,0,0,1-2.41.29l-.25-.15-1,.42-.07.29A2,2,0,0,1,12.84,22ZM8.1,17.68a1,1,0,0,1,.38.08l1.94.8a1,1,0,0,1,.59.69l.19.78,1.64,0,.16-.75a1,1,0,0,1,.59-.69l1.94-.8a1,1,0,0,1,.9.07l.68.41,1.14-1.18-.42-.64a1,1,0,0,1-.07-.9l.8-1.94a1,1,0,0,1,.68-.59l.75-.18V11.16L19.25,11a1,1,0,0,1-.68-.59l-.8-1.94a1,1,0,0,1,.07-.9l.41-.69L17.06,5.75l-.64.42a1,1,0,0,1-.9.07l-1.94-.8A1,1,0,0,1,13,4.75L12.8,4,11.16,4,11,4.75a1,1,0,0,1-.59.69l-1.94.8a1,1,0,0,1-.9-.07l-.69-.42L5.75,6.94l.42.64a1,1,0,0,1,.07.9l-.8,1.94a1,1,0,0,1-.68.59L4,11.2l0,1.64.75.16a1,1,0,0,1,.68.59l.8,1.94a1,1,0,0,1-.07.9l-.41.69,1.18,1.14.64-.42A1,1,0,0,1,8.1,17.68Z"/></svg>